<?xml version="1.0" encoding="UTF-8"?>
<svg version="1.1" xmlns="http://www.w3.org/2000/svg" width="375" height="84">
<path d="M0 0 C0.84790604 -0.00960754 1.69581207 -0.01921509 2.56941223 -0.02911377 C3.95370674 -0.03548859 3.95370674 -0.03548859 5.3659668 -0.04199219 C6.30949509 -0.04769226 7.25302338 -0.05339233 8.22514343 -0.05926514 C10.22674431 -0.06873176 12.2283609 -0.07525568 14.22998047 -0.07910156 C17.29186297 -0.08879336 20.35307055 -0.11979539 23.41479492 -0.15136719 C25.35684822 -0.1578983 27.29890633 -0.16314834 29.2409668 -0.16699219 C30.15775711 -0.17933899 31.07454742 -0.19168579 32.01911926 -0.20440674 C38.35322497 -0.18223493 38.35322497 -0.18223493 41.53369141 1.49926758 C43.64667044 3.88966949 44.33801602 6.3106233 45.25268555 9.34863281 C45.5878418 10.4353125 45.92299805 11.52199219 46.26831055 12.64160156 C46.5106543 13.47304688 46.75299805 14.30449219 47.00268555 15.16113281 C47.40100586 14.24589844 47.79932617 13.33066406 48.2097168 12.38769531 C48.73952148 11.19917969 49.26932617 10.01066406 49.81518555 8.78613281 C50.33725586 7.60277344 50.85932617 6.41941406 51.3972168 5.20019531 C53.00268555 2.16113281 53.00268555 2.16113281 56.00268555 0.16113281 C59.1394043 -0.03417969 59.1394043 -0.03417969 62.69018555 0.03613281 C63.86967773 0.05417969 65.04916992 0.07222656 66.2644043 0.09082031 C67.61985352 0.125625 67.61985352 0.125625 69.00268555 0.16113281 C70.12377755 3.54899214 70.0365492 4.07963979 68.5612793 7.62988281 C67.86507426 8.97927371 67.1573408 10.32275858 66.44018555 11.66113281 C66.07465576 12.37672363 65.70912598 13.09231445 65.33251953 13.82958984 C63.69320885 17.02808779 62.00500568 20.15723302 60.16674805 23.24707031 C55.14830278 31.98650914 55.02457519 40.31079565 55.00268555 50.16113281 C51.1467657 51.61756563 48.2873591 52.42796059 44.19018555 51.84863281 C43.42061523 51.749375 42.65104492 51.65011719 41.8581543 51.54785156 C40.00268555 51.16113281 40.00268555 51.16113281 39.00268555 50.16113281 C39.0490918 49.13117188 39.09549805 48.10121094 39.14331055 47.04003906 C39.71830503 31.52073446 32.3777371 19.3209283 25.00268555 6.16113281 C24.85831055 7.29550781 24.71393555 8.42988281 24.56518555 9.59863281 C24.00268555 13.16113281 24.00268555 13.16113281 23.00268555 14.16113281 C20.81629102 14.23372227 18.62768166 14.24487064 16.44018555 14.22363281 C14.64387695 14.21009766 14.64387695 14.21009766 12.8112793 14.19628906 C11.88444336 14.1846875 10.95760742 14.17308594 10.00268555 14.16113281 C10.00268555 16.47113281 10.00268555 18.78113281 10.00268555 21.16113281 C12.97268555 21.16113281 15.94268555 21.16113281 19.00268555 21.16113281 C20.19251615 23.54079402 20.1361852 25.07599016 20.12768555 27.72363281 C20.13155273 28.93212891 20.13155273 28.93212891 20.13549805 30.16503906 C20.00268555 32.16113281 20.00268555 32.16113281 19.00268555 33.16113281 C16.03268555 33.16113281 13.06268555 33.16113281 10.00268555 33.16113281 C10.00268555 39.10113281 10.00268555 45.04113281 10.00268555 51.16113281 C7.25763092 52.53366013 4.99941143 52.29342537 1.94018555 52.28613281 C0.3140332 52.29 0.3140332 52.29 -1.3449707 52.29394531 C-3.99731445 52.16113281 -3.99731445 52.16113281 -4.99731445 51.16113281 C-5.09578412 49.60114233 -5.12530063 48.03672737 -5.12670898 46.47363281 C-5.12986115 45.47589844 -5.13301331 44.47816406 -5.13626099 43.45019531 C-5.13423676 42.36480469 -5.13221252 41.27941406 -5.13012695 40.16113281 C-5.13108368 39.05511719 -5.13204041 37.94910156 -5.13302612 36.80957031 C-5.13370812 34.46581974 -5.13185249 32.12206728 -5.12768555 29.77832031 C-5.12233759 26.17671494 -5.12762992 22.57523428 -5.1340332 18.97363281 C-5.13337243 16.7027992 -5.13209127 14.43196567 -5.13012695 12.16113281 C-5.13215118 11.07574219 -5.13417542 9.99035156 -5.13626099 8.87207031 C-5.13310883 7.87433594 -5.12995667 6.87660156 -5.12670898 5.84863281 C-5.12591339 4.965625 -5.1251178 4.08261719 -5.1242981 3.17285156 C-4.89544933 -0.45264964 -3.1979464 0.02912946 0 0 Z " fill="#020101" transform="translate(295.997314453125,17.8388671875)"/>
<path d="M0 0 C5.24610393 2.74683644 9.51395043 7.63143062 11.8203125 13.0234375 C14.05174866 21.69445198 14.44433092 33.60647504 10.0078125 41.5859375 C6.24876725 46.55757799 1.89523667 50.1741741 -4.32421875 51.34765625 C-12.62539127 52.2271709 -19.55996221 51.56202097 -26.32421875 46.34765625 C-33.55937286 38.06627822 -33.99330684 29.87159457 -33.49902344 19.30078125 C-32.9340386 12.98810154 -30.54092103 8.09537798 -25.88671875 3.84765625 C-18.79920011 -1.80920317 -8.57666318 -2.40723152 0 0 Z M-15.01171875 15.28515625 C-18.02084763 19.27021882 -18.63698735 22.40253112 -18.32421875 27.34765625 C-17.36859932 30.93292348 -15.97742631 33.69444869 -13.32421875 36.34765625 C-9.67504159 36.82363588 -7.98630041 36.84869102 -5.01171875 34.59765625 C-1.88109969 30.4234975 -1.96908192 26.49714026 -2.32421875 21.34765625 C-3.90146177 17.3669953 -4.73422786 15.74098351 -8.32421875 13.34765625 C-12.33561609 12.95778853 -12.33561609 12.95778853 -15.01171875 15.28515625 Z " fill="#010101" transform="translate(162.32421875,18.65234375)"/>
<path d="M0 0 C3.66651247 -0.08796382 7.33274918 -0.14071247 11 -0.1875 C12.54494141 -0.22520508 12.54494141 -0.22520508 14.12109375 -0.26367188 C21.53284118 -0.33448475 27.51244452 0.20995562 33.5 5 C35.8005879 9.60117579 35.7666222 13.95798478 35 19 C33.91274463 21.45569748 32.77721634 22.94509361 31 25 C31.804375 25.763125 32.60875 26.52625 33.4375 27.3125 C37.34294477 31.40845427 37.399106 35.06039884 37.3515625 40.48828125 C36.77192476 44.62947086 35.06671673 46.2120757 32 49 C28.57752589 51.19483223 25.75963485 51.24543766 21.73828125 51.23046875 C20.53751953 51.22853516 19.33675781 51.22660156 18.09960938 51.22460938 C16.84986328 51.21236328 15.60011719 51.20011719 14.3125 51.1875 C12.42047852 51.1865332 12.42047852 51.1865332 10.49023438 51.18554688 C1.14023184 51.14023184 1.14023184 51.14023184 0 50 C-0.09326716 48.43452952 -0.11745582 46.86487228 -0.11352539 45.29663086 C-0.11344986 44.29566879 -0.11337433 43.29470673 -0.11329651 42.26341248 C-0.10813522 41.1748848 -0.10297394 40.08635712 -0.09765625 38.96484375 C-0.0962413 37.85645645 -0.09482635 36.74806915 -0.09336853 35.60609436 C-0.08775033 32.04986931 -0.07519475 28.49370617 -0.0625 24.9375 C-0.05748734 22.53320403 -0.05292403 20.12890708 -0.04882812 17.72460938 C-0.03777499 11.81638496 -0.02101917 5.9081969 0 0 Z M15 13 C15 15.64 15 18.28 15 21 C16.65 20.67 18.3 20.34 20 20 C20.67958603 17.60280568 20.67958603 17.60280568 21 15 C20.34 14.34 19.68 13.68 19 13 C17.68 13 16.36 13 15 13 Z M15 31 C15 33.64 15 36.28 15 39 C18.29075996 38.62095792 18.29075996 38.62095792 21 37 C21.16666667 34.5 21.16666667 34.5 21 32 C19.93354885 30.70366379 19.93354885 30.70366379 17.4375 30.9375 C16.633125 30.958125 15.82875 30.97875 15 31 Z " fill="#010101" transform="translate(221,18)"/>
<path d="M0 0 C3.66651247 -0.08796382 7.33274918 -0.14071247 11 -0.1875 C12.54494141 -0.22520508 12.54494141 -0.22520508 14.12109375 -0.26367188 C20.49349618 -0.3245547 25.23786467 0.20483573 31 3 C34.11110786 6.26666326 35.26506922 8.95167041 35.5625 13.375 C35.36212512 18.50633933 33.0492059 22.00336226 30 26 C30.62390625 26.27585937 31.2478125 26.55171875 31.890625 26.8359375 C35.08847101 28.60067474 35.74723245 30.61752763 37 34 C37.56637974 37.91108171 37.37816665 41.14912504 35.75 44.8125 C33.14920432 48.0634946 30.94928155 49.68357282 27 51 C25.01998809 51.09449003 23.03695165 51.1307174 21.0546875 51.1328125 C19.89582031 51.13410156 18.73695313 51.13539062 17.54296875 51.13671875 C15.72732422 51.13091797 15.72732422 51.13091797 13.875 51.125 C12.04775391 51.13080078 12.04775391 51.13080078 10.18359375 51.13671875 C9.02730469 51.13542969 7.87101563 51.13414063 6.6796875 51.1328125 C5.61476074 51.13168457 4.54983398 51.13055664 3.45263672 51.12939453 C1 51 1 51 0 50 C-0.09326716 48.43452952 -0.11745582 46.86487228 -0.11352539 45.29663086 C-0.11344986 44.29566879 -0.11337433 43.29470673 -0.11329651 42.26341248 C-0.10813522 41.1748848 -0.10297394 40.08635712 -0.09765625 38.96484375 C-0.0962413 37.85645645 -0.09482635 36.74806915 -0.09336853 35.60609436 C-0.08775033 32.04986931 -0.07519475 28.49370617 -0.0625 24.9375 C-0.05748734 22.53320403 -0.05292403 20.12890708 -0.04882812 17.72460938 C-0.03777499 11.81638496 -0.02101917 5.9081969 0 0 Z M14 13 C14 15.64 14 18.28 14 21 C16.41645782 21.16687448 16.41645782 21.16687448 19 21 C19.66 20.34 20.32 19.68 21 19 C20.71016731 15.69316534 20.71016731 15.69316534 19 13 C17.33382885 12.95936168 15.66611905 12.957279 14 13 Z M14 31 C14 33.64 14 36.28 14 39 C16.41645782 39.16687448 16.41645782 39.16687448 19 39 C19.66 38.34 20.32 37.68 21 37 C20.67801034 33.90073181 20.67801034 33.90073181 20 31 C18.02 31 16.04 31 14 31 Z " fill="#010101" transform="translate(180,18)"/>
<path d="M0 0 C4.31248609 -0.02886537 8.62494762 -0.04675255 12.9375 -0.0625 C14.78504883 -0.07506836 14.78504883 -0.07506836 16.66992188 -0.08789062 C17.83974609 -0.09111328 19.00957031 -0.09433594 20.21484375 -0.09765625 C21.84087524 -0.10551147 21.84087524 -0.10551147 23.49975586 -0.11352539 C26 0 26 0 27 1 C27.09851171 2.83115883 27.12972629 4.66619933 27.125 6.5 C27.12886719 8.00046875 27.12886719 8.00046875 27.1328125 9.53125 C27 12 27 12 26 13 C24.35 13 22.7 13 21 13 C21 21.25 21 29.5 21 38 C22.65 38 24.3 38 26 38 C28.68701733 43.05791498 27.814704 44.48236801 27 51 C17.76 51 8.52 51 -1 51 C-1 39 -1 39 0 38 C1.65 38 3.3 38 5 38 C5 29.75 5 21.5 5 13 C3.02 13 1.04 13 -1 13 C-1.90581318 7.65570224 -2.13896525 5.04080377 0 0 Z " fill="#010101" transform="translate(261,18)"/>
<path d="M0 0 C3.31248187 -0.02888146 6.62493167 -0.04675799 9.9375 -0.0625 C10.88302734 -0.07087891 11.82855469 -0.07925781 12.80273438 -0.08789062 C14.15141602 -0.09272461 14.15141602 -0.09272461 15.52734375 -0.09765625 C16.77632446 -0.10551147 16.77632446 -0.10551147 18.05053711 -0.11352539 C20 0 20 0 21 1 C21.12610274 4.04404373 21.18871062 7.0641159 21.203125 10.109375 C21.20882507 11.02833557 21.21452515 11.94729614 21.22039795 12.894104 C21.22986535 14.84442996 21.2363888 16.79477204 21.24023438 18.74511719 C21.24991418 21.72359406 21.28091033 24.70137354 21.3125 27.6796875 C21.31903237 29.57291256 21.32428192 31.46614257 21.328125 33.359375 C21.3404718 34.24913025 21.3528186 35.1388855 21.36553955 36.05560303 C21.34826671 40.87449259 21.12611003 44.07920624 18 48 C12.96849972 52.23130987 7.12307442 52.56053312 0.78125 52.3203125 C-2.76603482 51.91177689 -5.14898585 51.17577395 -8 49 C-9.5625 46.8125 -9.5625 46.8125 -10 44 C-9.24625581 41.16423514 -8.1909136 38.70245779 -7 36 C-3.37 36 0.26 36 4 36 C5.20270964 33.59458071 5.20316663 31.89633409 5.31640625 29.2109375 C5.35830078 28.26992188 5.40019531 27.32890625 5.44335938 26.359375 C5.48267578 25.37453125 5.52199219 24.3896875 5.5625 23.375 C5.60568359 22.38242187 5.64886719 21.38984375 5.69335938 20.3671875 C5.79961069 17.91160162 5.90164964 15.45591297 6 13 C3.69 13 1.38 13 -1 13 C-2.02218499 7.88907506 -1.80063225 4.85208538 0 0 Z " fill="#010101" transform="translate(105,18)"/>
<path d="M0 0 C0.66 0 1.32 0 2 0 C2.14695312 1.66289062 2.14695312 1.66289062 2.296875 3.359375 C2.4469916 4.82301184 2.59808465 6.28654876 2.75 7.75 C2.811875 8.47960938 2.87375 9.20921875 2.9375 9.9609375 C3.30825732 13.35954624 3.7648385 15.67407441 5.78125 18.46875 C8.2700286 20.18635777 9.75488851 20.57381697 12.75 20.75 C13.54921875 20.80671875 14.3484375 20.8634375 15.171875 20.921875 C16.07679687 20.96054687 16.07679687 20.96054687 17 21 C17.495 22.485 17.495 22.485 18 24 C17.16855469 24.13535156 16.33710937 24.27070312 15.48046875 24.41015625 C8.67781795 25.56002411 8.67781795 25.56002411 3.8125 30 C2.48030294 34.83962214 2.26188841 40.00605903 2 45 C1.01 45 0.02 45 -1 45 C-1.07347656 43.69675781 -1.07347656 43.69675781 -1.1484375 42.3671875 C-1.22320312 41.21476562 -1.29796875 40.06234375 -1.375 38.875 C-1.44460937 37.73804688 -1.51421875 36.60109375 -1.5859375 35.4296875 C-1.99443876 32.04606384 -2.80967569 29.18387559 -4 26 C-9.94 25.01 -9.94 25.01 -16 24 C-16 23.01 -16 22.02 -16 21 C-15.39671875 20.96261719 -14.7934375 20.92523438 -14.171875 20.88671875 C-7.95694557 20.48699966 -7.95694557 20.48699966 -3 17 C-1.56064395 12.68193184 -1.56092986 8.36075802 -1.28125 3.8359375 C-1 1 -1 1 0 0 Z " fill="#066CF1" transform="translate(26,26)"/>
<path d="M0 0 C0.33 0 0.66 0 1 0 C1.66 4.62 2.32 9.24 3 14 C6.3 14.66 9.6 15.32 13 16 C12.67 16.66 12.34 17.32 12 18 C10.22265625 18.421875 10.22265625 18.421875 8.0625 18.75 C5.89487348 19.19108095 5.89487348 19.19108095 4 20 C1.83672187 24.04438956 1.54340751 28.47160409 1 33 C0.34 33 -0.32 33 -1 33 C-1.03738281 32.24074219 -1.07476562 31.48148438 -1.11328125 30.69921875 C-1.17902344 29.70535156 -1.24476562 28.71148437 -1.3125 27.6875 C-1.37050781 26.70136719 -1.42851563 25.71523438 -1.48828125 24.69921875 C-2.05636925 21.70266295 -2.53159598 20.73702505 -5 19 C-8.61023099 18.26958147 -8.61023099 18.26958147 -12 18 C-12 17.34 -12 16.68 -12 16 C-11.36191406 15.80664062 -10.72382812 15.61328125 -10.06640625 15.4140625 C-9.24011719 15.15367188 -8.41382813 14.89328125 -7.5625 14.625 C-6.73878906 14.36976562 -5.91507813 14.11453125 -5.06640625 13.8515625 C-2.82201984 13.19117773 -2.82201984 13.19117773 -2 11 C-1.68954474 8.40856095 -1.49026088 5.81628268 -1.28125 3.21484375 C-1 1 -1 1 0 0 Z " fill="#106DE9" transform="translate(69,16)"/>
<path d="M0 0 C0.66 0 1.32 0 2 0 C1.125 4.875 1.125 4.875 0 6 C0.99 6.66 1.98 7.32 3 8 C3 8.66 3 9.32 3 10 C3.66 10 4.32 10 5 10 C4.67 10.66 4.34 11.32 4 12 C3.34 11.67 2.68 11.34 2 11 C2.33 12.32 2.66 13.64 3 15 C2.01 15.33 1.02 15.66 0 16 C0 15.01 0 14.02 0 13 C-0.99 13 -1.98 13 -3 13 C-3 12.34 -3 11.68 -3 11 C-8.94 10.01 -8.94 10.01 -15 9 C-15 8.01 -15 7.02 -15 6 C-14.39671875 5.96261719 -13.7934375 5.92523438 -13.171875 5.88671875 C-8.5526711 5.50675198 -5.53065899 5.24820627 -2 2 C-1.34 2 -0.68 2 0 2 C0 1.34 0 0.68 0 0 Z " fill="#026DFB" transform="translate(25,41)"/>
<path d="M0 0 C1.32 0.66 2.64 1.32 4 2 C3.5359375 3.1446875 3.5359375 3.1446875 3.0625 4.3125 C1.66197419 9.17314841 1.34020266 13.96858173 1 19 C0.01 19 -0.98 19 -2 19 C-2.06058594 18.10796875 -2.12117188 17.2159375 -2.18359375 16.296875 C-2.26738281 15.12640625 -2.35117187 13.9559375 -2.4375 12.75 C-2.51871094 11.58984375 -2.59992187 10.4296875 -2.68359375 9.234375 C-2.93247787 6.69022624 -3.28114942 4.44046752 -4 2 C-3.34 2 -2.68 2 -2 2 C-2 2.99 -2 3.98 -2 5 C-1.34 4.67 -0.68 4.34 0 4 C0 2.68 0 1.36 0 0 Z " fill="#1E6CD4" transform="translate(27,52)"/>
<path d="M0 0 C0.66 0 1.32 0 2 0 C2.33 5.28 2.66 10.56 3 16 C1.68 15.67 0.36 15.34 -1 15 C-1.33 15.66 -1.66 16.32 -2 17 C-1.85978195 14.35375716 -1.71310224 11.70815422 -1.5625 9.0625 C-1.52318359 8.30775391 -1.48386719 7.55300781 -1.44335938 6.77539062 C-1.11328125 1.11328125 -1.11328125 1.11328125 0 0 Z " fill="#2672D7" transform="translate(26,26)"/>
<path d="M0 0 C0 3 0 3 -1 5 C-1.99 5 -2.98 5 -4 5 C-3.67 5.99 -3.34 6.98 -3 8 C-6.3 7.67 -9.6 7.34 -13 7 C-13 6.01 -13 5.02 -13 4 C-12.39671875 3.96261719 -11.7934375 3.92523438 -11.171875 3.88671875 C-5.00632228 3.43746659 -5.00632228 3.43746659 0 0 Z " fill="#1F69D0" transform="translate(23,43)"/>
<path d="M0 0 C3.63 0.33 7.26 0.66 11 1 C11.33 1.99 11.66 2.98 12 4 C8.7 4.33 5.4 4.66 2 5 C1.34 3.35 0.68 1.7 0 0 Z " fill="#116BDC" transform="translate(32,46)"/>
<path d="M0 0 C2.97 0.495 2.97 0.495 6 1 C5.34 5.29 4.68 9.58 4 14 C3.34 14 2.68 14 2 14 C1.93941406 13.24074219 1.87882812 12.48148438 1.81640625 11.69921875 C1.73261719 10.70535156 1.64882812 9.71148437 1.5625 8.6875 C1.48128906 7.70136719 1.40007812 6.71523438 1.31640625 5.69921875 C1.08187441 2.90624401 1.08187441 2.90624401 0 0 Z " fill="#2A74D1" transform="translate(66,35)"/>
<path d="M0 0 C0.33 0 0.66 0 1 0 C1.33 3.96 1.66 7.92 2 12 C1.01 12 0.02 12 -1 12 C-1.66 13.32 -2.32 14.64 -3 16 C-4.32 15.67 -5.64 15.34 -7 15 C-6.360625 14.71125 -5.72125 14.4225 -5.0625 14.125 C-2.84793921 13.17176549 -2.84793921 13.17176549 -2 11 C-1.68954474 8.40856095 -1.49026088 5.81628268 -1.28125 3.21484375 C-1 1 -1 1 0 0 Z " fill="#2C71D0" transform="translate(69,16)"/>
<path d="M0 0 C0.66 0 1.32 0 2 0 C2.66 1.65 3.32 3.3 4 5 C2.68 5.99 1.36 6.98 0 8 C-1.125 5.6875 -1.125 5.6875 -2 3 C-1.34 2.01 -0.68 1.02 0 0 Z " fill="#286FC7" transform="translate(56,57)"/>
<path d="M0 0 C1.32 1.32 2.64 2.64 4 4 C2.68 5.32 1.36 6.64 0 8 C-1.125 5.6875 -1.125 5.6875 -2 3 C-1.34 2.01 -0.68 1.02 0 0 Z " fill="#236CC8" transform="translate(39,22)"/>
<path d="M0 0 C2.64 0.33 5.28 0.66 8 1 C7.67 1.66 7.34 2.32 7 3 C4.67843403 3.40729228 2.3431213 3.74438677 0 4 C0 2.68 0 1.36 0 0 Z " fill="#2970CB" transform="translate(74,31)"/>
<path d="M0 0 C0.66 0 1.32 0 2 0 C2.66 0.66 3.32 1.32 4 2 C4.66 2 5.32 2 6 2 C6 3.32 6 4.64 6 6 C5.01 6 4.02 6 3 6 C3 5.34 3 4.68 3 4 C2.34 4 1.68 4 1 4 C0.67 2.68 0.34 1.36 0 0 Z " fill="#0967EE" transform="translate(19,48)"/>
<path d="M0 0 C2.97 0 5.94 0 9 0 C9.33 0.99 9.66 1.98 10 3 C8.35 3 6.7 3 5 3 C5 2.67 5 2.34 5 2 C3.35 1.67 1.7 1.34 0 1 C0 0.67 0 0.34 0 0 Z " fill="#2871C7" transform="translate(34,47)"/>
</svg>
